<?xml version="1.0" encoding="UTF-8"?>
<!DOCTYPE svg PUBLIC "-//W3C//DTD SVG 1.1//EN" "http://www.w3.org/Graphics/SVG/1.1/DTD/svg11.dtd">
<!-- Creator: CorelDRAW X5 -->
<svg xmlns="http://www.w3.org/2000/svg" xml:space="preserve" width="190.491mm" height="130mm" style="shape-rendering:geometricPrecision; text-rendering:geometricPrecision; image-rendering:optimizeQuality; fill-rule:evenodd; clip-rule:evenodd"
viewBox="0 0 19049 13000"
 xmlns:xlink="http://www.w3.org/1999/xlink">
 <defs>
  <style type="text/css">
   <![CDATA[
    .fil1 {fill:#1C4596}
    .fil0 {fill:#3C893F}
    .fil2 {fill:#1C4596;fill-rule:nonzero}
    .fil3 {fill:#3C893F;fill-rule:nonzero}
   ]]>
  </style>
 </defs>
 <g id="Layer_x0020_1">
  <metadata id="CorelCorpID_0Corel-Layer"/>
  <path class="fil0" d="M9218 5970l195 -175 -216 0 0 -240 102 0 -190 -172 -182 170 93 0 0 289c1,89 16,130 93,131l105 -1z"/>
  <path class="fil0" d="M9806 5384l-195 175 216 0 0 240 -102 0 190 172 182 -170 -93 0 0 -289c-1,-89 -16,-130 -93,-131l-105 1z"/>
  <path class="fil0" d="M9805 5971l-175 -195 0 216 -240 0 0 -102 -172 190 170 182 0 -93 289 0c89,-1 130,-16 131,-93l-1 -105z"/>
  <path class="fil0" d="M9219 5383l175 195 0 -216 240 0 0 102 172 -190 -170 -182 0 93 -289 0c-89,1 -130,16 -131,93l1 105z"/>
  <path class="fil1" d="M8442 5141c-25,39 -45,39 -64,206 -19,167 87,343 87,343 0,0 -11,-81 40,-147 51,-67 152,-165 200,-232 48,-67 60,-152 60,-152l0 0c-44,20 -92,31 -144,31 -66,0 -127,-18 -179,-50z"/>
  <path class="fil1" d="M8867 4847c0,136 -110,246 -246,246 -136,0 -246,-110 -246,-246 0,-136 110,-246 246,-246 136,0 246,110 246,246z"/>
  <path class="fil1" d="M8901 4640c0,0 189,-137 379,-163 190,-27 463,19 463,19 0,0 -132,9 -213,57 -82,48 -147,121 -244,209 -97,87 -165,144 -234,177 -44,21 -82,26 -103,27 13,-37 21,-77 21,-118 0,-78 -25,-149 -68,-207l0 0z"/>
  <path class="fil0" d="M8986 6759c39,25 39,45 207,64 167,19 343,-87 343,-87 0,0 -81,11 -147,-40 -67,-51 -165,-152 -232,-200 -67,-48 -152,-60 -152,-60l0 0c20,44 31,92 31,144 0,66 -18,127 -50,179z"/>
  <path class="fil0" d="M8692 6334c136,0 246,110 246,246 0,136 -110,246 -246,246 -136,0 -246,-110 -246,-246 0,-136 110,-246 246,-246z"/>
  <path class="fil0" d="M8485 6300c0,0 -137,-189 -163,-379 -27,-190 19,-463 19,-463 0,0 9,132 57,213 48,82 121,147 209,244 87,97 144,165 177,234 21,44 26,82 27,103 -37,-13 -77,-21 -118,-21 -78,0 -149,25 -207,68l0 0z"/>
  <path class="fil1" d="M10582 6214c25,-39 45,-39 64,-206 19,-167 -87,-343 -87,-343 0,0 11,81 -40,147 -51,67 -152,165 -200,232 -48,67 -60,152 -60,152l0 0c44,-20 92,-31 144,-31 66,0 127,18 179,50z"/>
  <path class="fil1" d="M10157 6507c0,-136 110,-246 246,-246 136,0 246,110 246,246 0,136 -110,246 -246,246 -136,0 -246,-110 -246,-246z"/>
  <path class="fil1" d="M10123 6715c0,0 -189,137 -379,163 -190,27 -463,-19 -463,-19 0,0 132,-9 213,-57 82,-48 147,-121 244,-209 97,-87 165,-144 234,-177 44,-21 82,-26 103,-27 -13,37 -21,77 -21,118 0,78 25,149 68,207l0 0z"/>
  <path class="fil0" d="M10037 4596c-39,-25 -39,-45 -207,-64 -167,-19 -343,87 -343,87 0,0 81,-11 147,40 67,51 165,152 232,200 67,48 152,60 152,60l0 0c-20,-44 -31,-92 -31,-144 0,-66 18,-127 50,-179z"/>
  <path class="fil0" d="M10331 5020c-136,0 -246,-110 -246,-246 0,-136 110,-246 246,-246 136,0 246,110 246,246 0,136 -110,246 -246,246z"/>
  <path class="fil0" d="M10538 5054c0,0 137,189 163,379 27,190 -19,463 -19,463 0,0 -9,-132 -57,-213 -48,-82 -121,-147 -209,-244 -87,-97 -144,-165 -177,-234 -21,-44 -26,-82 -27,-103 37,13 77,21 118,21 78,0 149,-25 207,-68l0 0z"/>
  <path class="fil2" d="M6568 7984l0 -729 238 0c32,0 59,4 80,12 22,8 40,19 53,34 14,15 23,32 30,52 6,20 9,43 9,67 0,30 -2,57 -7,79 -5,22 -12,40 -21,55 -10,15 -21,26 -35,34 -14,8 -30,14 -48,18 41,2 73,15 97,40 24,24 36,61 36,110 0,80 -16,138 -47,175 -31,36 -82,55 -151,55l-233 0zm204 -63c37,0 64,-11 81,-33 17,-22 26,-58 26,-108 0,-26 -1,-48 -4,-66 -3,-18 -8,-32 -14,-43 -7,-11 -16,-19 -27,-24 -11,-5 -25,-7 -42,-7l-106 0 0 281 86 0zm11 -338c30,0 51,-11 65,-33 13,-22 20,-55 20,-98 0,-49 -6,-83 -19,-102 -12,-19 -34,-29 -64,-29l-99 0 0 263 97 0zm472 53c19,0 35,-3 48,-8 13,-5 24,-14 32,-27 9,-13 15,-30 19,-50 4,-21 6,-47 6,-78 0,-30 -2,-56 -5,-75 -3,-20 -8,-35 -15,-47 -7,-11 -15,-19 -26,-24 -11,-4 -24,-7 -40,-7l-93 0 0 316 74 0zm-192 347l0 -729 228 0c34,0 63,4 88,11 24,8 43,19 58,34 15,15 25,34 32,58 7,23 10,50 10,81 0,49 -3,91 -10,124 -7,33 -19,60 -35,80 -16,20 -38,35 -65,44 -27,9 -60,13 -100,13l-87 0 0 217c1,52 -48,65 -118,66zm589 -729c40,-3 114,20 117,76l0 485c0,121 -66,182 -198,182 -65,0 -111,-14 -138,-42 -12,-12 -22,-27 -29,-43 -12,-32 36,-57 61,-21 3,7 10,12 14,17 14,17 39,26 73,26 36,0 62,-9 78,-26 16,-17 23,-46 23,-86l0 -567zm236 606c8,14 19,27 32,37 22,16 49,25 81,25 15,0 30,-3 44,-8 14,-5 26,-13 37,-23 10,-10 19,-22 25,-36 6,-14 9,-30 9,-48 0,-16 -2,-30 -7,-42 -4,-12 -10,-23 -18,-32 -8,-10 -17,-18 -27,-26 -10,-8 -22,-16 -34,-24 -27,-18 -53,-35 -76,-52 -23,-17 -43,-35 -60,-54 -17,-19 -31,-40 -40,-63 -10,-23 -15,-51 -15,-82 0,-27 4,-52 13,-75 9,-23 21,-43 38,-59 17,-17 37,-30 61,-39 24,-10 52,-14 83,-14 41,0 76,9 105,28 28,18 48,43 58,76 10,21 -44,47 -60,15 -7,-11 -15,-21 -25,-28 -17,-13 -38,-20 -62,-20 -34,0 -60,9 -79,28 -19,18 -28,44 -28,78 0,28 7,51 21,69 14,18 32,35 53,50 21,15 44,29 69,43 25,14 48,30 69,48 21,18 39,40 53,65 14,25 21,57 21,95 0,30 -5,57 -15,83 -10,25 -25,47 -44,66 -19,18 -42,33 -70,43 -28,10 -59,16 -94,16 -45,0 -85,-11 -118,-33 -27,-18 -48,-41 -64,-71 -19,-36 45,-66 63,-33z"/>
  <path class="fil3" d="M12343 7936l0 -381c0,-30 -7,-50 -20,-61 -13,-11 -33,-16 -61,-16 -23,0 -44,5 -64,16 -20,11 -34,23 -43,36l0 404c0,37 -70,58 -112,62l0 -631c59,2 111,43 112,64l0 39c15,-19 36,-36 65,-50 29,-15 62,-22 100,-22 46,0 80,12 102,37 22,24 33,62 33,114l0 450c-60,4 -111,-18 -112,-61z"/>
  <path class="fil3" d="M11505 7978c-8,4 -16,8 -25,10 -19,6 -43,9 -74,9 -48,0 -86,-15 -113,-44 -27,-30 -41,-71 -41,-123l0 -347 0 -27 -45 0 0 -58 45 0 0 -116c88,-1 110,32 111,52l0 63 114 0 0 59 -114 0 0 26 0 348c0,32 7,58 20,76 13,18 34,27 62,27 18,0 33,-2 44,-6 39,-10 50,39 16,52z"/>
  <path class="fil3" d="M11054 7942l0 -29c-13,26 -32,46 -57,61 -25,15 -55,22 -89,22 -52,0 -91,-14 -117,-43 -26,-29 -39,-69 -39,-120 0,-51 10,-91 30,-118 20,-27 52,-48 94,-63 14,-5 29,-9 44,-12 16,-3 31,-6 46,-9 15,-3 29,-6 43,-10 14,-4 25,-10 35,-17l0 -60c0,-31 -6,-55 -19,-70 -13,-16 -37,-24 -72,-24 -27,0 -50,6 -69,18 -12,7 -23,18 -33,31 -35,33 -78,-15 -55,-41 16,-23 37,-40 61,-52 32,-16 67,-23 104,-23 27,0 52,2 76,6 24,4 44,12 62,24 17,12 31,28 41,49 10,21 15,49 15,83l0 328 0 21 0 1 0 100c-60,2 -101,-8 -102,-56l0 3zm-9 -285c-13,7 -28,13 -45,17 -17,4 -34,9 -49,14 -32,10 -55,26 -69,47 -14,21 -21,48 -21,82 0,38 7,66 20,83 14,17 35,26 64,26 22,0 42,-6 59,-17 17,-11 30,-27 40,-48l0 -204z"/>
  <path class="fil3" d="M10583 7936l0 -381c0,-30 -7,-50 -20,-61 -13,-11 -33,-16 -61,-16 -23,0 -44,5 -64,16 -20,11 -34,23 -43,36l0 408c-1,37 -56,58 -112,58l-1 -741c44,-3 110,26 113,61l0 152c15,-19 36,-36 65,-50 29,-15 62,-22 100,-22 46,0 80,12 102,37 22,24 33,62 33,114l0 450c-42,2 -112,-12 -112,-61z"/>
  <path class="fil3" d="M9436 7894c4,4 9,8 14,12 21,15 46,23 75,23 30,0 53,-8 68,-24 15,-16 22,-36 22,-61 0,-17 -3,-32 -8,-43 -5,-12 -12,-22 -20,-30 -8,-8 -17,-15 -28,-20 -10,-5 -21,-10 -32,-15 -24,-10 -46,-20 -66,-31 -20,-11 -37,-24 -52,-38 -15,-14 -26,-30 -34,-48 -8,-18 -12,-39 -12,-63 0,-29 5,-54 14,-75 9,-22 22,-40 39,-54 17,-14 36,-25 59,-32 23,-7 47,-11 74,-11 32,0 63,6 91,18 20,8 36,22 49,40 23,33 -26,68 -59,34 -4,-4 -9,-8 -15,-11 -17,-10 -36,-15 -58,-15 -13,0 -25,2 -37,5 -12,3 -22,8 -31,15 -9,7 -16,15 -21,25 -5,10 -8,23 -8,37 0,24 7,43 20,56 13,13 30,24 50,33 20,9 42,17 65,25 23,8 45,19 65,32 20,13 37,31 50,52 13,22 20,51 20,88 0,28 -5,53 -15,75 -10,22 -23,41 -40,56 -17,15 -38,27 -61,35 -24,8 -49,12 -77,12 -46,0 -85,-9 -117,-28 -16,-9 -31,-21 -43,-35 -35,-38 2,-84 58,-40z"/>
  <path class="fil3" d="M9195 7629c-5,-72 -9,-191 -104,-191 -96,0 -108,124 -109,190l213 1zm68 270c-5,14 -12,26 -20,38 -8,12 -19,22 -33,32 -13,9 -30,16 -50,21 -20,5 -45,8 -74,8 -77,0 -131,-24 -171,-66 -76,-81 -85,-376 -8,-474 40,-52 90,-85 156,-85 197,0 214,147 223,311l-313 0c-4,117 -16,248 128,249 32,0 56,-6 72,-18 16,-12 23,-24 33,-35 29,-32 67,-4 56,20z"/>
  <path class="fil3" d="M8696 7933l-103 -327 -73 99 0 235c1,42 -80,57 -118,57l0 -729c35,-2 117,12 118,73l0 261 238 -333c26,-29 85,-10 77,7l-160 223 169 499c-41,0 -129,5 -147,-64z"/>
  <path class="fil3" d="M10137 7629c-5,-72 -9,-191 -104,-191 -96,0 -108,124 -109,190l213 1zm68 270c-5,14 -12,26 -20,38 -8,12 -19,22 -33,32 -13,9 -30,16 -50,21 -20,5 -45,8 -74,8 -77,0 -131,-24 -171,-66 -76,-81 -85,-376 -8,-474 40,-52 90,-85 156,-85 197,0 214,147 223,311l-313 0c-4,117 -16,248 128,249 32,0 56,-6 72,-18 16,-12 23,-24 33,-35 29,-32 67,-4 56,20z"/>
  <path class="fil3" d="M11849 7942l0 -29c-13,26 -32,46 -57,61 -25,15 -55,22 -89,22 -52,0 -91,-14 -117,-43 -26,-29 -39,-69 -39,-120 0,-51 10,-91 30,-118 20,-27 52,-48 94,-63 14,-5 29,-9 44,-12 16,-3 31,-6 46,-9 15,-3 29,-6 43,-10 14,-4 25,-10 35,-17l0 -60c0,-31 -6,-55 -19,-70 -13,-16 -37,-24 -72,-24 -27,0 -50,6 -69,18 -12,7 -23,18 -33,31 -35,33 -78,-15 -55,-41 16,-23 37,-40 61,-52 32,-16 67,-23 104,-23 27,0 52,2 76,6 24,4 44,12 62,24 17,12 31,28 41,49 10,21 15,49 15,83l0 328 0 21 0 1 0 100c-60,2 -101,-8 -102,-56l0 3zm-9 -285c-13,7 -28,13 -45,17 -17,4 -34,9 -49,14 -32,10 -55,26 -69,47 -14,21 -21,48 -21,82 0,38 7,66 20,83 14,17 35,26 64,26 22,0 42,-6 59,-17 17,-11 30,-27 40,-48l0 -204z"/>
  <path class="fil2" d="M6547 8458l0 -254 95 0c19,0 35,3 47,8 12,5 21,13 27,24 7,11 10,22 10,33 0,11 -3,21 -9,31 -6,10 -15,17 -27,23 15,4 27,12 35,23 8,11 12,24 12,38 0,12 -3,23 -8,33 -5,10 -11,18 -19,24 -7,5 -17,10 -28,13 -11,3 -25,4 -41,4l-97 0zm34 -147l55 0c15,0 26,-1 32,-3 9,-3 15,-7 19,-13 4,-6 6,-13 6,-22 0,-8 -2,-16 -6,-22 -4,-6 -10,-11 -17,-13 -8,-2 -20,-4 -39,-4l-51 0 0 77zm0 117l63 0c11,0 18,0 23,-1 8,-1 14,-4 19,-7 5,-3 9,-8 13,-14 3,-6 5,-13 5,-21 0,-10 -2,-18 -7,-25 -5,-7 -12,-12 -20,-15 -9,-3 -21,-4 -37,-4l-59 0 0 87zm320 7c-12,10 -23,17 -33,21 -11,4 -22,6 -34,6 -20,0 -36,-5 -47,-15 -11,-10 -16,-22 -16,-38 0,-9 2,-17 6,-25 4,-7 10,-13 16,-18 7,-4 14,-8 22,-10 6,-2 15,-3 28,-5 25,-3 44,-7 56,-11 0,-4 0,-7 0,-8 0,-13 -3,-22 -9,-27 -8,-7 -20,-11 -36,-11 -15,0 -26,3 -33,8 -7,5 -12,14 -16,27l-30 -4c3,-13 7,-24 14,-32 6,-8 16,-14 28,-19 12,-4 26,-7 42,-7 16,0 29,2 38,6 10,4 17,8 22,14 5,6 8,13 10,21 1,5 2,15 2,29l0 41c0,29 1,47 2,55 1,8 4,15 8,22l-33 0c-3,-7 -5,-14 -6,-23zm-2 -69c-11,5 -28,9 -51,12 -13,2 -22,4 -27,6 -5,2 -9,6 -12,10 -3,4 -4,9 -4,15 0,8 3,15 9,21 6,5 16,8 28,8 12,0 23,-3 32,-8 9,-5 16,-12 21,-21 3,-7 5,-17 5,-31l0 -11zm198 92l0 -23c-12,18 -29,27 -51,27 -15,0 -28,-4 -40,-12 -12,-8 -22,-19 -29,-34 -7,-14 -10,-31 -10,-50 0,-18 3,-35 9,-50 6,-15 15,-26 28,-34 12,-8 26,-12 41,-12 11,0 21,2 30,7 9,5 16,11 21,18l0 -91 31 0 0 254 -29 0zm-98 -92c0,23 5,41 15,53 10,12 22,17 35,17 14,0 25,-6 35,-17 10,-11 14,-28 14,-51 0,-25 -5,-43 -15,-55 -10,-12 -22,-18 -36,-18 -14,0 -25,6 -35,17 -9,11 -14,29 -14,53zm297 69c-12,10 -23,17 -33,21 -11,4 -22,6 -34,6 -20,0 -36,-5 -47,-15 -11,-10 -16,-22 -16,-38 0,-9 2,-17 6,-25 4,-7 10,-13 16,-18 7,-4 14,-8 22,-10 6,-2 15,-3 28,-5 25,-3 44,-7 56,-11 0,-4 0,-7 0,-8 0,-13 -3,-22 -9,-27 -8,-7 -20,-11 -36,-11 -15,0 -26,3 -33,8 -7,5 -12,14 -16,27l-30 -4c3,-13 7,-24 14,-32 6,-8 16,-14 28,-19 12,-4 26,-7 42,-7 16,0 29,2 38,6 10,4 17,8 22,14 5,6 8,13 10,21 1,5 2,15 2,29l0 41c0,29 1,47 2,55 1,8 4,15 8,22l-33 0c-3,-7 -5,-14 -6,-23zm-2 -69c-11,5 -28,9 -51,12 -13,2 -22,4 -27,6 -5,2 -9,6 -12,10 -3,4 -4,9 -4,15 0,8 3,15 9,21 6,5 16,8 28,8 12,0 23,-3 32,-8 9,-5 16,-12 21,-21 3,-7 5,-17 5,-31l0 -11zm79 92l0 -184 28 0 0 26c13,-20 33,-30 58,-30 11,0 21,2 31,6 9,4 16,9 21,16 5,6 8,14 10,23 1,6 2,16 2,30l0 113 -31 0 0 -112c0,-13 -1,-22 -4,-28 -2,-6 -7,-11 -13,-15 -6,-4 -13,-6 -22,-6 -13,0 -25,4 -34,13 -10,8 -14,24 -14,48l0 100 -31 0zm299 0l0 -254 96 0c17,0 30,1 39,2 12,2 23,6 31,12 8,6 15,14 20,24 5,10 8,22 8,35 0,21 -7,40 -21,55 -14,15 -39,22 -74,22l-65 0 0 103 -34 0zm34 -133l66 0c22,0 37,-4 46,-12 9,-8 14,-19 14,-34 0,-11 -3,-20 -8,-27 -5,-8 -12,-13 -21,-15 -6,-1 -16,-2 -31,-2l-65 0 0 91zm324 74l32 4c-5,19 -14,33 -28,44 -14,10 -31,16 -52,16 -27,0 -48,-8 -64,-25 -16,-16 -24,-40 -24,-69 0,-31 8,-55 24,-72 16,-17 36,-26 62,-26 25,0 45,8 60,25 16,17 23,40 23,70 0,2 0,5 0,8l-137 0c1,20 7,36 17,46 10,11 23,16 38,16 11,0 21,-3 29,-9 8,-6 14,-16 19,-29zm-102 -50l102 0c-1,-15 -5,-27 -12,-35 -10,-12 -23,-18 -39,-18 -14,0 -26,5 -36,14 -10,10 -15,22 -16,38zm174 109l0 -184 28 0 0 26c13,-20 33,-30 58,-30 11,0 21,2 31,6 9,4 16,9 21,16 5,6 8,14 10,23 1,6 2,16 2,30l0 113 -31 0 0 -112c0,-13 -1,-22 -4,-28 -2,-6 -7,-11 -13,-15 -6,-4 -13,-6 -22,-6 -13,0 -25,4 -34,13 -10,8 -14,24 -14,48l0 100 -31 0zm196 71l-4 -29c7,2 13,3 18,3 7,0 13,-1 17,-3 4,-2 8,-6 10,-10 2,-3 5,-11 10,-23 1,-2 1,-4 3,-8l-70 -184 33 0 38 106c5,13 9,28 13,42 4,-14 8,-28 13,-41l39 -107 31 0 -69 187c-8,20 -13,34 -18,42 -6,10 -12,18 -19,22 -7,5 -16,7 -26,7 -6,0 -13,-1 -20,-4zm304 -130l32 4c-5,19 -14,33 -28,44 -14,10 -31,16 -52,16 -27,0 -48,-8 -64,-25 -16,-16 -24,-40 -24,-69 0,-31 8,-55 24,-72 16,-17 36,-26 62,-26 24,0 45,8 60,25 16,17 23,40 23,70 0,2 0,5 0,8l-137 0c1,20 7,36 17,46 10,11 23,16 38,16 11,0 21,-3 29,-9 8,-6 14,-16 19,-29zm-102 -50l102 0c-1,-15 -5,-27 -12,-35 -10,-12 -23,-18 -38,-18 -14,0 -26,5 -36,14 -10,10 -15,22 -16,38zm173 109l0 -254 31 0 0 254 -31 0zm205 -60l32 4c-5,19 -14,33 -28,44 -14,10 -31,16 -52,16 -27,0 -48,-8 -64,-25 -16,-16 -24,-40 -24,-69 0,-31 8,-55 24,-72 16,-17 36,-26 62,-26 25,0 45,8 60,25 16,17 23,40 23,70 0,2 0,5 0,8l-137 0c1,20 7,36 17,46 10,11 23,16 38,16 11,0 21,-3 29,-9 8,-6 14,-16 19,-29zm-102 -50l102 0c-1,-15 -5,-27 -12,-35 -10,-12 -23,-18 -38,-18 -14,0 -26,5 -36,14 -10,10 -15,22 -16,38zm174 109l0 -184 28 0 0 26c13,-20 33,-30 58,-30 11,0 21,2 31,6 9,4 16,9 21,16 5,6 8,14 10,23 1,6 2,16 2,30l0 113 -31 0 0 -112c0,-13 -1,-22 -4,-28 -2,-6 -7,-11 -13,-15 -6,-4 -13,-6 -22,-6 -13,0 -25,4 -34,13 -10,8 -14,24 -14,48l0 100 -31 0zm191 15l30 4c1,9 5,16 11,20 8,6 18,9 32,9 14,0 26,-3 33,-9 8,-6 13,-14 16,-24 2,-6 2,-20 2,-40 -14,16 -31,24 -51,24 -25,0 -45,-9 -59,-27 -14,-18 -21,-40 -21,-65 0,-18 3,-34 10,-49 6,-15 16,-26 28,-34 12,-8 26,-12 43,-12 22,0 40,9 54,27l0 -23 29 0 0 159c0,29 -3,49 -9,61 -6,12 -15,21 -28,28 -13,7 -28,10 -47,10 -22,0 -40,-5 -53,-15 -14,-10 -20,-25 -20,-44zm26 -110c0,24 5,42 14,53 10,11 22,17 36,17 14,0 26,-5 36,-16 10,-11 15,-28 15,-52 0,-22 -5,-39 -15,-51 -10,-11 -22,-17 -36,-17 -14,0 -26,6 -35,17 -10,11 -15,28 -15,50zm171 110l30 4c1,9 5,16 11,20 8,6 18,9 32,9 14,0 26,-3 33,-9 8,-6 13,-14 16,-24 2,-6 2,-20 2,-40 -14,16 -31,24 -51,24 -25,0 -45,-9 -59,-27 -14,-18 -21,-40 -21,-65 0,-18 3,-34 10,-49 6,-15 16,-26 28,-34 12,-8 26,-12 43,-12 22,0 40,9 54,27l0 -23 29 0 0 159c0,29 -3,49 -9,61 -6,12 -15,21 -28,28 -13,7 -28,10 -47,10 -22,0 -40,-5 -53,-15 -14,-10 -20,-25 -20,-44zm26 -110c0,24 5,42 14,53 10,11 22,17 36,17 14,0 26,-5 36,-16 10,-11 15,-28 15,-52 0,-22 -5,-39 -15,-51 -10,-11 -22,-17 -36,-17 -14,0 -26,6 -35,17 -10,11 -15,28 -15,50zm297 72c-12,10 -23,17 -33,21 -11,4 -22,6 -34,6 -20,0 -36,-5 -47,-15 -11,-10 -16,-22 -16,-38 0,-9 2,-17 6,-25 4,-7 10,-13 16,-18 7,-4 14,-8 22,-10 6,-2 15,-3 28,-5 25,-3 44,-7 56,-11 0,-4 0,-7 0,-8 0,-13 -3,-22 -9,-27 -8,-7 -20,-11 -36,-11 -15,0 -26,3 -33,8 -7,5 -12,14 -16,27l-30 -4c3,-13 7,-24 14,-32 6,-8 16,-14 28,-19 12,-4 26,-7 42,-7 16,0 29,2 38,6 10,4 17,8 22,14 5,6 8,13 10,21 1,5 2,15 2,29l0 41c0,29 1,47 2,55 1,8 4,15 8,22l-33 0c-3,-7 -5,-14 -6,-23zm-2 -69c-11,5 -28,9 -51,12 -13,2 -22,4 -27,6 -5,2 -9,6 -12,10 -3,4 -4,9 -4,15 0,8 3,15 9,21 6,5 16,8 28,8 12,0 23,-3 32,-8 9,-5 16,-12 21,-21 3,-7 5,-17 5,-31l0 -11zm79 92l0 -184 28 0 0 28c7,-13 14,-22 20,-26 6,-4 13,-6 20,-6 11,0 21,3 32,10l-11 29c-8,-4 -15,-6 -23,-6 -7,0 -13,2 -18,6 -5,4 -9,10 -12,17 -3,11 -5,23 -5,36l0 96 -31 0zm238 -23c-12,10 -23,17 -33,21 -11,4 -22,6 -34,6 -20,0 -36,-5 -47,-15 -11,-10 -16,-22 -16,-38 0,-9 2,-17 6,-25 4,-7 10,-13 16,-18 7,-4 14,-8 22,-10 6,-2 15,-3 28,-5 25,-3 44,-7 56,-11 0,-4 0,-7 0,-8 0,-13 -3,-22 -9,-27 -8,-7 -20,-11 -36,-11 -15,0 -26,3 -33,8 -7,5 -12,14 -16,27l-30 -4c3,-13 7,-24 14,-32 6,-8 16,-14 28,-19 12,-4 26,-7 42,-7 16,0 29,2 38,6 10,4 17,8 22,14 5,6 8,13 10,21 1,5 2,15 2,29l0 41c0,29 1,47 2,55 1,8 4,15 8,22l-33 0c-3,-7 -5,-14 -6,-23zm-2 -69c-11,5 -28,9 -51,12 -13,2 -22,4 -27,6 -5,2 -9,6 -12,10 -3,4 -4,9 -4,15 0,8 3,15 9,21 6,5 16,8 28,8 12,0 23,-3 32,-8 9,-5 16,-12 21,-21 3,-7 5,-17 5,-31l0 -11zm165 20l30 -4c1,19 4,33 11,40 6,7 15,11 27,11 8,0 16,-2 22,-6 6,-4 10,-9 13,-16 2,-7 3,-17 3,-32l0 -175 34 0 0 173c0,21 -3,38 -8,49 -5,12 -13,20 -24,27 -11,6 -24,9 -39,9 -22,0 -39,-6 -51,-19 -12,-13 -17,-32 -17,-57zm310 49c-12,10 -23,17 -33,21 -11,4 -22,6 -34,6 -20,0 -36,-5 -47,-15 -11,-10 -16,-22 -16,-38 0,-9 2,-17 6,-25 4,-7 10,-13 16,-18 7,-4 14,-8 22,-10 6,-2 15,-3 28,-5 25,-3 44,-7 56,-11 0,-4 0,-7 0,-8 0,-13 -3,-22 -9,-27 -8,-7 -20,-11 -36,-11 -15,0 -26,3 -33,8 -7,5 -12,14 -16,27l-30 -4c3,-13 7,-24 14,-32 6,-8 16,-14 28,-19 12,-4 26,-7 42,-7 16,0 29,2 38,6 10,4 17,8 22,14 5,6 8,13 10,21 1,5 2,15 2,29l0 41c0,29 1,47 2,55 1,8 4,15 8,22l-33 0c-3,-7 -5,-14 -6,-23zm-2 -69c-11,5 -28,9 -51,12 -13,2 -22,4 -27,6 -5,2 -9,6 -12,10 -3,4 -4,9 -4,15 0,8 3,15 9,21 6,5 16,8 28,8 12,0 23,-3 32,-8 9,-5 16,-12 21,-21 3,-7 5,-17 5,-31l0 -11zm79 92l0 -184 28 0 0 26c6,-9 13,-16 23,-22 10,-5 20,-8 33,-8 14,0 25,3 33,8 9,6 15,14 18,24 15,-21 34,-32 57,-32 18,0 32,5 42,15 10,10 15,26 15,47l0 126 -31 0 0 -116c0,-12 -1,-21 -3,-27 -2,-5 -6,-10 -11,-13 -5,-3 -12,-5 -19,-5 -13,0 -24,4 -32,13 -9,9 -13,22 -13,41l0 107 -31 0 0 -119c0,-14 -3,-24 -8,-31 -5,-7 -13,-10 -25,-10 -9,0 -17,2 -24,7 -7,5 -13,11 -16,20 -3,9 -5,22 -5,38l0 95 -31 0zm295 -218l0 -35 31 0 0 35 -31 0zm0 218l0 -184 31 0 0 184 -31 0zm79 0l0 -184 28 0 0 26c13,-20 33,-30 58,-30 11,0 21,2 31,6 9,4 16,9 21,16 5,6 8,14 10,23 1,6 2,16 2,30l0 113 -31 0 0 -112c0,-13 -1,-22 -4,-28 -2,-6 -7,-11 -13,-15 -6,-4 -13,-6 -22,-6 -13,0 -25,4 -34,13 -10,8 -14,24 -14,48l0 100 -31 0zm317 -23c-12,10 -23,17 -33,21 -11,4 -22,6 -34,6 -20,0 -36,-5 -47,-15 -11,-10 -16,-22 -16,-38 0,-9 2,-17 6,-25 4,-7 10,-13 16,-18 7,-4 14,-8 22,-10 6,-2 15,-3 28,-5 25,-3 44,-7 56,-11 0,-4 0,-7 0,-8 0,-13 -3,-22 -9,-27 -8,-7 -20,-11 -36,-11 -15,0 -26,3 -33,8 -7,5 -12,14 -16,27l-30 -4c3,-13 7,-24 14,-32 6,-8 16,-14 28,-19 12,-4 26,-7 42,-7 16,0 29,2 38,6 10,4 17,8 22,14 5,6 8,13 10,21 1,5 2,15 2,29l0 41c0,29 1,47 2,55 1,8 4,15 8,22l-33 0c-3,-7 -5,-14 -6,-23zm-2 -69c-11,5 -28,9 -51,12 -13,2 -22,4 -27,6 -5,2 -9,6 -12,10 -3,4 -4,9 -4,15 0,8 3,15 9,21 6,5 16,8 28,8 12,0 23,-3 32,-8 9,-5 16,-12 21,-21 3,-7 5,-17 5,-31l0 -11zm79 92l0 -184 28 0 0 26c13,-20 33,-30 58,-30 11,0 21,2 31,6 9,4 16,9 21,16 5,6 8,14 10,23 1,6 2,16 2,30l0 113 -31 0 0 -112c0,-13 -1,-22 -4,-28 -2,-6 -7,-11 -13,-15 -6,-4 -13,-6 -22,-6 -13,0 -25,4 -34,13 -10,8 -14,24 -14,48l0 100 -31 0zm288 -81l32 -3c1,13 5,23 10,31 5,8 14,15 26,20 12,5 25,8 39,8 13,0 24,-2 34,-6 10,-4 17,-9 22,-16 5,-7 7,-14 7,-22 0,-8 -2,-15 -7,-21 -5,-6 -12,-11 -23,-15 -7,-3 -22,-7 -45,-12 -23,-6 -40,-11 -49,-16 -12,-6 -21,-14 -27,-24 -6,-9 -9,-20 -9,-32 0,-13 4,-25 11,-36 7,-11 18,-20 32,-25 14,-6 29,-9 47,-9 19,0 35,3 50,9 14,6 25,15 33,27 8,12 12,25 12,40l-32 2c-2,-16 -8,-28 -18,-36 -10,-8 -25,-12 -44,-12 -20,0 -35,4 -44,11 -9,7 -14,16 -14,27 0,9 3,17 10,22 6,6 23,12 51,18 27,6 46,12 56,16 15,7 26,15 33,26 7,10 11,22 11,36 0,14 -4,26 -12,38 -8,12 -19,21 -33,28 -14,7 -31,10 -49,10 -23,0 -42,-3 -58,-10 -16,-7 -28,-17 -36,-30 -9,-13 -13,-29 -14,-46z"/>
  <path class="fil2" d="M11810 8366c0,-34 9,-59 28,-75 16,-14 35,-20 58,-20 25,0 46,8 62,25 16,16 24,39 24,68 0,24 -4,42 -11,56 -7,14 -17,24 -31,32 -14,7 -28,11 -44,11 -26,0 -47,-8 -62,-25 -16,-16 -24,-40 -24,-71zm32 0c0,23 5,41 15,53 10,12 23,18 39,18 15,0 28,-6 39,-18 10,-12 15,-30 15,-54 0,-23 -5,-40 -16,-51 -10,-12 -23,-18 -39,-18 -16,0 -29,6 -39,17 -10,12 -15,29 -15,53zm164 37l31 -5c2,12 7,22 14,28 8,7 19,10 33,10 14,0 25,-3 32,-9 7,-6 10,-13 10,-20 0,-7 -3,-13 -9,-17 -4,-3 -15,-6 -32,-11 -23,-6 -39,-11 -47,-15 -9,-4 -15,-10 -20,-17 -5,-7 -7,-16 -7,-25 0,-8 2,-16 6,-23 4,-7 9,-13 15,-17 5,-4 11,-7 20,-9 8,-2 17,-4 27,-4 14,0 27,2 38,6 11,4 19,10 24,17 5,7 9,17 11,29l-30 4c-1,-10 -5,-17 -12,-22 -7,-5 -16,-8 -28,-8 -14,0 -24,2 -31,7 -6,5 -9,10 -9,17 0,4 1,8 4,11 3,3 7,6 12,8 3,1 12,4 27,8 22,6 37,11 46,14 9,4 16,9 21,16 5,7 7,16 7,27 0,10 -3,20 -9,29 -6,9 -15,16 -26,21 -11,5 -24,8 -39,8 -24,0 -42,-5 -55,-15 -13,-10 -20,-25 -24,-44zm189 -163l0 -35 31 0 0 35 -31 0zm0 218l0 -184 31 0 0 184 -31 0zm199 -23c-12,10 -23,17 -33,21 -11,4 -22,6 -34,6 -20,0 -36,-5 -47,-15 -11,-10 -16,-22 -16,-38 0,-9 2,-17 6,-25 4,-7 10,-13 16,-18 7,-4 14,-8 22,-10 6,-2 15,-3 28,-5 25,-3 44,-7 56,-11 0,-4 0,-7 0,-8 0,-13 -3,-22 -9,-27 -8,-7 -20,-11 -36,-11 -15,0 -26,3 -33,8 -7,5 -12,14 -16,27l-30 -4c3,-13 7,-24 14,-32 6,-8 16,-14 28,-19 12,-4 26,-7 42,-7 16,0 29,2 38,6 10,4 17,8 22,14 5,6 8,13 10,21 1,5 2,15 2,29l0 41c0,29 1,47 2,55 1,8 4,15 8,22l-33 0c-3,-7 -5,-14 -6,-23zm-2 -69c-11,5 -28,9 -51,12 -13,2 -22,4 -27,6 -5,2 -9,6 -12,10 -3,4 -4,9 -4,15 0,8 3,15 9,21 6,5 16,8 28,8 12,0 23,-3 32,-8 9,-5 16,-12 21,-21 3,-7 5,-17 5,-31l0 -11zm79 92l0 -254 31 0 0 254 -31 0z"/>
 </g>
</svg>
